<svg class="ldi-ifd0d4" width="214px"  height="214px"  xmlns="http://www.w3.org/2000/svg" xmlns:xlink="http://www.w3.org/1999/xlink" viewBox="0 0 100 100" preserveAspectRatio="xMidYMid" style="background: none;"><!--?xml version="1.0" encoding="utf-8"?--><!--Generator: Adobe Illustrator 21.0.0, SVG Export Plug-In . SVG Version: 6.00 Build 0)--><svg version="1.1" id="Layer_1" xmlns="http://www.w3.org/2000/svg" xmlns:xlink="http://www.w3.org/1999/xlink" x="0px" y="0px" viewBox="0 0 100 100" style="transform-origin: 50px 50px 0px;" xml:space="preserve" class=""><g class="" style="transform-origin: 50px 50px 0px; transform: scale(1);"><g class="" style="transform-origin: 50px 50px 0px;"><style type="text/css" class="ld ld-breath" style="transform-origin: 50px 50px 0px; animation-duration: 1.5s; animation-delay: -1.5s;">.st0{fill:url(#SVGID_1_);} .st1{fill:#4C96D1;} .st2{fill:#E8D556;} .st3{fill:#CF375B;} .st4{fill:#3B82C4;} .st5{fill:#236CB5;} .st6{fill:#D8B234;} .st7{fill:#1987C9;} .st8{fill:#2C98D4;} .st9{fill:#459FD1;} .st10{fill:#42B262;} .st11{fill:#000101;} .st12{fill:#653512;} .st13{fill:#15A260;} .st14{fill:#E42C91;} .st15{fill:#4873B8;} .st16{fill:#04A860;} .st17{fill:#FFCF65;} .st18{fill:#F3B41A;} .st19{fill:#DC4E40;} .st20{fill:#3E3E3E;} .st21{fill:#1CB360;} .st22{fill:#4E84C4;} .st23{fill:#87C540;} .st24{fill:#FFFFFF;} .st25{fill:#1E5281;} .st26{fill:#9FC93B;} .st27{fill:#F4811F;} .st28{fill:#4AA847;} .st29{fill:#176CB6;} .st30{fill:#FEFFFF;} .st31{fill:#323232;} .st32{fill:#BA1F24;} .st33{fill:#1B3461;} .st34{fill:#508BC1;} .st35{fill:#E64626;} .st36{fill:#F0A146;} .st37{fill:#79B947;} .st38{fill:#973D97;} .st39{fill:#3CB0E5;} .st40{fill:#F36E29;} .st41{fill:#37926B;} .st42{fill:#99B03F;} .st43{fill:#44B763;} .st44{fill:#65BC45;} .st45{fill:#ED523F;} .st46{fill:#B01E23;} .st47{fill:#9A2C34;} .st48{fill:#B03B7D;} .st49{fill:#EEBE1F;} .st50{fill:#3E489E;} .st51{fill:#CB8A3E;} .st52{fill:#3B8FB4;} .st53{fill:#8CB03E;} .st54{fill:#1D93CF;} .st55{fill:#163760;} .st56{fill:#C42530;} .st57{fill:#D4252D;} .st58{fill:#E76229;} .st59{fill:#D24F4E;} .st60{fill:#ED2123;} .st61{fill:#2C9AD6;} .st62{fill:#F5B51C;} .st63{fill:#E55227;} .st64{fill:#7CB341;} .st65{fill:#9D3538;} .st66{fill:#236F44;} .st67{fill:#672C91;} .st68{fill:#2971B9;} .st69{fill:#C84728;} .st70{fill:#2A5391;} .st71{fill:#5ABA48;} .st72{fill:#42B6DA;} .st73{fill:#F26721;} .st74{fill:#4C4C4C;} .st75{fill:#02603D;} .st76{fill:#D72026;} .st77{fill:#D81F26;} .st78{fill:#F7BB16;} .st79{fill:#EA4434;} .st80{fill:#34A850;} .st81{fill:#547EC0;} .st82{fill:#FFC820;} .st83{fill:#F47C1F;} .st84{fill:url(#SVGID_2_);} .st85{fill:url(#SVGID_3_);} .st86{fill:url(#SVGID_4_);} .st87{fill:url(#SVGID_5_);} .st88{opacity:0.2;fill:#000101;enable-background:new ;} .st89{opacity:0.12;fill:#000101;enable-background:new ;} .st90{opacity:0.25;fill:#FFFFFF;enable-background:new ;} .st91{fill:none;stroke:#E42C91;stroke-width:4;stroke-miterlimit:10;} .st92{fill:none;stroke:#E42C91;stroke-width:4;stroke-linecap:round;stroke-miterlimit:10;} .st93{fill:#F04B4C;} .st94{fill:#472D8B;} .st95{fill:#E4F2FC;} .st96{fill:#7AC144;} .st97{fill:#E44E25;} .st98{fill:#F16729;} .st99{fill:#EBEBEB;} .st100{fill:#31322F;} .st101{fill:#E7EAE8;} .st102{fill:#EDD3B6;} .st103{fill:#CA3B34;} .st104{fill:#324F5E;} .st105{fill:#29221E;} .st106{fill:#7FABBE;} .st107{fill:none;} .st108{fill:#378D69;} .st109{fill:#ED2223;} .st110{fill:#E35F2F;} .st111{fill:#E79979;} .st112{fill:#3786A8;} .st113{fill:#6CBE44;} .st114{fill:#28B04A;} .st115{fill:#1072AB;} .st116{fill:#E7BD38;} .st117{fill:#170908;} .st118{fill:#28A7DA;} .st119{fill:#10354A;} .st120{fill:#674C46;} .st121{fill:#F3DAB9;} .st122{fill:#1B82B5;} .st123{fill:#4EB0D7;} .st124{fill:#F6CC57;} .st125{fill:#11202F;} .st126{fill:#E5BC8D;} .st127{fill:#997256;} .st128{fill:#DD1E26;} .st129{fill:#EE9B27;} .st130{fill:#F16121;} .st131{fill:#4492CF;} .st132{fill:#DF2841;} .st133{fill:#3F77BC;} .st134{fill:#F5C22A;} .st135{fill:#141414;} .st136{fill:#C78A2A;} .st137{fill:#DA972D;} .st138{fill:#F4AE35;} .st139{fill:#1D9045;} .st140{fill:#CC2628;} .st141{fill:#679B62;} .st142{fill:#C13A37;} .st143{fill:#4F5056;} .st144{fill:#EFEFEF;} .st145{fill:#EB8028;} .st146{fill:#174AA0;} .st147{fill:#E92830;} .st148{fill:#F04F4D;}</style><g class="ld ld-breath" style="transform-origin: 50px 50px 0px; animation-duration: 1.5s; animation-delay: -1.38462s;"><path class="st11" d="M83.166,73.547c-0.515,0-1.03-0.15-1.485-0.45c-1.23-0.835-1.55-2.5-0.75-3.7 c2.465-3.65,3.75-7.94,3.75-12.399s-1.285-8.749-3.75-12.399c-0.825-1.23-0.48-2.89,0.72-3.69c1.25-0.83,2.9-0.485,3.7,0.715 c3.05,4.55,4.65,9.899,4.65,15.399s-1.6,10.849-4.65,15.399c-0.45,0.8-1.3,1.2-2.15,1.2L83.166,73.547z" fill="#fdfdfd" style="fill: rgb(253, 253, 253);"></path></g><g class="ld ld-breath" style="transform-origin: 50px 50px 0px; animation-duration: 1.5s; animation-delay: -1.26923s;"><path class="st11" d="M75.536,69.232c-0.515,0-1.03-0.15-1.49-0.46c-1.23-0.8-1.54-2.45-0.715-3.65c1.63-2.4,2.49-5.15,2.49-8.099 c0-2.85-0.86-5.65-2.49-8.099c-0.825-1.2-0.515-2.85,0.715-3.65c1.23-0.8,2.86-0.5,3.69,0.75c2.23,3.3,3.4,7.15,3.4,11.049 c0,4-1.17,7.8-3.4,11.049c-0.485,0.8-1.35,1.2-2.2,1.2V69.232z" fill="#fdfdfd" style="fill: rgb(253, 253, 253);"></path></g><g class="ld ld-breath" style="transform-origin: 50px 50px 0px; animation-duration: 1.5s; animation-delay: -1.15385s;"><path class="st11" d="M63.097,45.398v-0.005c-1.05-10.659-10.049-18.999-20.999-18.999c-9.069,0-17.099,5.825-19.984,14.274 C15.29,41.679,10,47.568,10,54.678c0,7.81,6.375,14.179,14.199,14.179h36.358c6.55,0,11.889-5.315,11.889-11.859 C72.447,51.313,68.447,46.568,63.097,45.398z M60.442,63.722l-36.233,0c-4.89,0-8.899-4.15-8.899-9.039 c0-4.885,3.98-8.859,8.899-8.859c2.365,0,4.6,0.95,6.285,2.6c1,1.05,2.7,1.05,3.75,0c1-1,1-2.7,0-3.75c-1.85-1.8-4.1-3.1-6.55-3.7 c2.5-5.55,8.099-9.249,14.349-9.249c8.699,0,15.799,7.1,15.799,15.799c0,1.7-0.25,3.35-0.8,4.95c-0.45,1.4,0.3,2.9,1.7,3.4 c0.25,0.1,0.55,0.15,0.8,0.15c1.1,0,2.15-0.7,2.5-1.8c0.35-1.05,0.6-2.1,0.75-3.2c2.45,0.95,4.2,3.35,4.2,6.1 C66.992,60.772,64.042,63.722,60.442,63.722z" fill="#fdfdfd" style="fill: rgb(253, 253, 253);"></path></g><metadata xmlns:d="https://loading.io/stock/" class="ld ld-breath" style="transform-origin: 50px 50px 0px; animation-duration: 1.5s; animation-delay: -1.03846s;">
<d:name class="ld ld-breath" style="transform-origin: 50px 50px 0px; animation-duration: 1.5s; animation-delay: -0.923077s;">mixcloud</d:name>
<d:tags class="ld ld-breath" style="transform-origin: 50px 50px 0px; animation-duration: 1.5s; animation-delay: -0.807692s;">mixcloud,brand</d:tags>
<d:license class="ld ld-breath" style="transform-origin: 50px 50px 0px; animation-duration: 1.5s; animation-delay: -0.692308s;">cc0</d:license>
<d:slug class="ld ld-breath" style="transform-origin: 50px 50px 0px; animation-duration: 1.5s; animation-delay: -0.576923s;">ifd0d4</d:slug>
</metadata></g></g><style type="text/css" class="ld ld-breath" style="transform-origin: 50px 50px 0px; animation-duration: 1.5s; animation-delay: -0.461538s;">path,ellipse,circle,rect,polygon,polyline,line { stroke-width: 0; }@keyframes ld-breath {
  0% {
    -webkit-transform: scale(0.86);
    transform: scale(0.86);
  }
  50% {
    -webkit-transform: scale(1.06);
    transform: scale(1.06);
  }
  100% {
    -webkit-transform: scale(0.86);
    transform: scale(0.86);
  }
}
@-webkit-keyframes ld-breath {
  0% {
    -webkit-transform: scale(0.86);
    transform: scale(0.86);
  }
  50% {
    -webkit-transform: scale(1.06);
    transform: scale(1.06);
  }
  100% {
    -webkit-transform: scale(0.86);
    transform: scale(0.86);
  }
}
.ld.ld-breath {
  -webkit-animation: ld-breath 1s infinite;
  animation: ld-breath 1s infinite;
}
</style></svg></svg>